<svg viewBox="291.686 -138.9 93.857 78">
<path fill="#333333" d="M372.257-138.9h-67.071c-7.5,0-13.5,6.214-13.5,13.714v37.5c0,5.571,3.429,10.5,8.357,12.429
	c0,0,31.929,14.357,38.571,14.357s38.571-14.357,38.571-14.357c5.143-2.143,8.357-6.857,8.357-12.429v-37.5
	C385.543-132.686,379.757-138.9,372.257-138.9z M346.329-81.686c0,0.643-0.429,1.286-0.857,1.5c0,0-6.214,3.214-6.857,3l-6.429-3
	c-0.429-0.214-0.857-0.857-0.857-1.5v-7.286c0-0.643,0.429-1.071,1.071-1.071l0,0l6.214,2.571l6.643-2.571
	c0.643,0,1.071,0.429,1.071,1.071V-81.686L346.329-81.686z M373.329-89.186c0,0.643-0.429,1.286-1.071,1.5L360.686-83.4
	c-0.643,0.214-1.071,0-1.071-0.643v-22.5c0-0.643-0.429-0.857-1.071-0.643c0,0-19.714,8.786-20.143,8.571l-19.5-8.571
	c-0.429-0.214-0.857,0-0.857,0.643v22.714c0,0.643-0.429,0.857-1.071,0.643l-12.429-4.929c-0.643-0.214-1.071-0.857-1.071-1.5
	v-36.643c0-0.643,0.429-0.857,1.071-0.643l33.857,13.929c0.643,0.214,33.643-13.929,33.643-13.929c0.429-0.214,1.071,0,1.071,0.643
	v37.071H373.329z"/>
</svg>
